<?xml version="1.0" encoding="utf-8"?>
<!-- Generator: Adobe Illustrator 16.0.2, SVG Export Plug-In . SVG Version: 6.00 Build 0)  -->
<!DOCTYPE svg PUBLIC "-//W3C//DTD SVG 1.1//EN" "http://www.w3.org/Graphics/SVG/1.1/DTD/svg11.dtd">
<svg version="1.1" id="Layer_1" xmlns="http://www.w3.org/2000/svg" xmlns:xlink="http://www.w3.org/1999/xlink" x="0px" y="0px"
	 width="500px" height="400px" viewBox="0 0 500 400" enable-background="new 0 0 500 400" xml:space="preserve">
<g>
	<path fill="#FFFFFF" d="M469.072,58.157c-3.382-6.116-10.775-9.996-18.176-9.996c-10.236,0-18.831,7.396-22.513,17.905
		c-2.015-0.84-4.093-1.302-6.352-1.302c-10.676,0-19.289,10.129-19.289,22.734c0,1.538,0.176,2.413,0.423,4.409h65.906"/>
	<path fill="#FFFFFF" d="M279.067,157.772c0.005,0,0.017-0.661,0.017-0.794c0-4.892-3.357-9.061-7.502-9.061
		c-1.034,0-2.018,0.146-2.914,0.591c-0.528-7.261-5.687-13.012-11.978-13.012c-5.013,0-9.309,3.598-11.112,8.748
		c-0.986-0.412-2.048-0.651-3.154-0.651c-5.23,0-9.471,5.403-9.471,11.575c0,0.756,0.063,0.606,0.183,2.602h45.93V157.772z"/>
	<path fill="#F0524D" d="M118.244,73.04c-4.206-1.185-16.133-4.547-26.268,2.894C76.74,87.12,81.74,110.846,64.155,123.272
		c-5.267,3.723-39.015-10.966-39.142-8.051c-0.201,4.526,39.828,26.73,49.708,24.053c13.614-3.687,13.1-21.757,27.858-27.387
		c9.978-3.806,14.621,2.777,26.63-3.164c3.444-1.703,11.131-5.508,12.33-11.949C143.316,87.229,130.003,76.355,118.244,73.04z"/>
	
		<linearGradient id="SVGID_1_" gradientUnits="userSpaceOnUse" x1="2308.4932" y1="-1964.1372" x2="2361.7998" y2="-1964.1372" gradientTransform="matrix(-0.2876 -0.9577 0.9577 -0.2876 2765.4485 1764.9249)">
		<stop  offset="0.2416" style="stop-color:#F4B57E"/>
		<stop  offset="0.734" style="stop-color:#F4B57E"/>
	</linearGradient>
	<polygon fill="url(#SVGID_1_)" points="222.438,62.719 191.065,109.296 208.445,122.578 232.355,70.286 	"/>
	<path fill="#4B916C" d="M167.702,138.682c-9.942,14.71,1.081,25.829,1.081,25.829c3.961,5.132,11.041,19.345,21.578-2.384
		l18.084-39.55l-17.377-13.279L167.702,138.682z"/>
	<g>
		<path fill="#1D2445" d="M237.047,267.831c-0.367-5.982-3.197-11.367-7.57-14.415l-77.206-60.558l-14.34,23.883
			c-5.33,9.691-2.703,24.824,6.302,29.362l50.251,25.349l-37.178,35.268l19.816,28.06l54.186-51.398
			C235.265,279.623,237.414,273.813,237.047,267.831z"/>
		
			<linearGradient id="SVGID_2_" gradientUnits="userSpaceOnUse" x1="-495.1455" y1="-1244.9141" x2="-457.3135" y2="-1244.9141" gradientTransform="matrix(0.9904 0.1386 -0.1386 0.9904 457.9561 1627.8569)">
			<stop  offset="0.2416" style="stop-color:#DE8C5F"/>
			<stop  offset="0.734" style="stop-color:#DE8C5F"/>
		</linearGradient>
		<polygon fill="url(#SVGID_2_)" points="140.631,322.537 160.012,351.005 177.12,334.778 157.306,306.72 		"/>
	</g>
	<path fill="#3F99B0" d="M159.112,378.914l-22.942-38.259c-3.442-5.739-2.292-13.688,2.571-17.753l9.08-7.588l18.097,30.176
		c6.119,10.204,4.072,24.33-4.571,31.557L159.112,378.914z"/>
	
		<linearGradient id="SVGID_3_" gradientUnits="userSpaceOnUse" x1="-476.7944" y1="-887.1978" x2="-450.1611" y2="-887.1978" gradientTransform="matrix(0.8708 0.4917 -0.4917 0.8708 296.8966 1150.9065)">
		<stop  offset="0.2416" style="stop-color:#F4B57E"/>
		<stop  offset="0.734" style="stop-color:#F4B57E"/>
	</linearGradient>
	<polygon fill="url(#SVGID_3_)" points="313.115,157.762 327.974,126.123 339.99,145.611 331.097,174.761 	"/>
	
		<linearGradient id="SVGID_4_" gradientUnits="userSpaceOnUse" x1="149.3794" y1="-1662.9414" x2="180.2192" y2="-1662.9414" gradientTransform="matrix(1.2281 -0.1066 0.188 1.1199 455.7414 2002.141)">
		<stop  offset="0.2416" style="stop-color:#F4B57E"/>
		<stop  offset="0.734" style="stop-color:#F4B57E"/>
	</linearGradient>
	<path fill="url(#SVGID_4_)" d="M339.352,145.235l-5.902-5.754c-5.605-5.465-7.638-10.862-5.051-18.884l7.568-25.63
		c0.021-0.07,0.084-0.111,0.145-0.092l15.57,4.895c8.571,2.695,13.719,13.02,11.551,23.172l-4.021,18.817
		c-0.078,0.343-0.165,0.681-0.259,1.01C356.199,152.32,345.943,151.657,339.352,145.235z"/>
	<path fill="#2E2E2E" d="M325.485,131.89c0,0,18.576,0.405,22.085-24.285c0,0,15.346,15.759,24.991,1.512
		c0,0-29.98-32.296-43.692-9.693C317.504,118.165,325.485,131.89,325.485,131.89z"/>
	
		<linearGradient id="SVGID_5_" gradientUnits="userSpaceOnUse" x1="350.2354" y1="-2208.9199" x2="360.4971" y2="-2208.9199" gradientTransform="matrix(0.866 -0.5 0.5 0.866 1137.2917 2213.5093)">
		<stop  offset="0.2416" style="stop-color:#F4B57E"/>
		<stop  offset="0.734" style="stop-color:#F4B57E"/>
	</linearGradient>
	<path fill="url(#SVGID_5_)" d="M344.808,120.02c1.868,3.82,1.489,8.204-0.846,9.798c-2.336,1.591-5.741-0.214-7.611-4.034
		c-1.867-3.82-1.49-8.208,0.846-9.798C339.533,114.395,342.941,116.2,344.808,120.02z"/>
	
		<linearGradient id="SVGID_6_" gradientUnits="userSpaceOnUse" x1="-188.1851" y1="-2076.1274" x2="-182.5023" y2="-2076.6206" gradientTransform="matrix(1 0 0 0.611 547.4399 1396.2407)">
		<stop  offset="0.2416" style="stop-color:#F4B57E"/>
		<stop  offset="0.734" style="stop-color:#F4B57E"/>
	</linearGradient>
	<path fill="url(#SVGID_6_)" d="M363.264,122.441c0,0,0.126,4.463,2.195,8.843c0.65,1.373-4.542,2.378-5.749-0.855
		S363.264,122.441,363.264,122.441z"/>
	<g>
		<path fill="#2D5C44" d="M362.154,264.146c-0.364-5.981-3.195-11.369-7.569-14.415l-80.47-56.041l-11.808,21.473
			c-5.329,9.689-1.97,22.719,7.032,27.259l50.253,25.344l-37.179,35.27l19.816,28.06l54.187-51.399
			C360.375,275.939,362.521,270.129,362.154,264.146z"/>
		
			<linearGradient id="SVGID_7_" gradientUnits="userSpaceOnUse" x1="-371.7603" y1="-1265.8984" x2="-333.9292" y2="-1265.8984" gradientTransform="matrix(0.9904 0.1386 -0.1386 0.9904 457.9561 1627.8569)">
			<stop  offset="0.2416" style="stop-color:#DE8C5F"/>
			<stop  offset="0.734" style="stop-color:#DE8C5F"/>
		</linearGradient>
		<polygon fill="url(#SVGID_7_)" points="265.74,318.854 285.121,347.325 302.229,331.096 282.414,303.036 		"/>
	</g>
	<path fill="#1D2445" d="M284.22,375.229l-22.942-38.258c-3.441-5.74-2.291-13.688,2.57-17.752l9.082-7.589l18.096,30.178
		c6.118,10.202,4.073,24.327-4.57,31.553L284.22,375.229z"/>
	
		<linearGradient id="SVGID_8_" gradientUnits="userSpaceOnUse" x1="-208.8384" y1="-1555.0571" x2="-161.0454" y2="-1555.0571" gradientTransform="matrix(1 0 0 1 547.4399 1781.4395)">
		<stop  offset="0.2416" style="stop-color:#F4B57E"/>
		<stop  offset="0.734" style="stop-color:#F4B57E"/>
	</linearGradient>
	<polygon fill="url(#SVGID_8_)" points="386.395,247.756 355.525,195.316 338.602,212.303 376.747,257.448 	"/>
	<path fill="#3F99B0" d="M334.58,159.73c-9.737-16.602-20.244-8.49-20.244-8.49c-5.691,3.222-12.575,15.203-4.586,26.915
		l28.851,34.148l16.924-16.986L334.58,159.73z"/>
	
		<linearGradient id="SVGID_9_" gradientUnits="userSpaceOnUse" x1="-177.5015" y1="-1529.5132" x2="-141.2964" y2="-1529.5132" gradientTransform="matrix(1 0 0 1 547.4399 1781.4395)">
		<stop  offset="0.2416" style="stop-color:#F4B57E"/>
		<stop  offset="0.734" style="stop-color:#F4B57E"/>
	</linearGradient>
	<path fill="url(#SVGID_9_)" d="M406.144,253.091c-1.187,4.412-4.658,7.409-8.579,7.409H381.28c-4.839,0-11.342-7.676-11.342-17.147
		l0,0L406.144,253.091L406.144,253.091z"/>
	
		<linearGradient id="SVGID_10_" gradientUnits="userSpaceOnUse" x1="333.3711" y1="644.3115" x2="391.3657" y2="639.8403" gradientTransform="matrix(0 1 -1 0 1061.1367 -77.145)">
		<stop  offset="0.2416" style="stop-color:#F4B57E"/>
		<stop  offset="0.734" style="stop-color:#F4B57E"/>
	</linearGradient>
	<polygon fill="url(#SVGID_10_)" points="416.427,255.969 448.339,284.979 416.427,314.137 390.851,299.308 390.851,273.291 	"/>
	<g>
		<path fill="#F0524D" d="M243.558,288.963c-0.045-0.611-0.127-2.006-0.125-3.912c-0.003-1.904,0.079-3.298,0.125-3.912
			c0.513-8.295,2.922-20.555,12.311-25.17H77.065c-9.39,4.615-11.799,16.875-12.309,25.17c-0.047,0.614-0.129,2.008-0.125,3.912
			c-0.004,1.906,0.078,3.301,0.125,3.912c0.512,8.297,2.92,20.558,12.309,25.172H255.87
			C246.48,309.521,244.071,297.262,243.558,288.963z"/>
	</g>
	<path fill="#2E2E2E" d="M439.083,281.14c-0.044,0.613-0.127,2.007-0.125,3.911c-0.002,1.906,0.081,3.301,0.125,3.912
		c0.079,1.289,0.213,2.677,0.4,4.109l8.855-8.094l-8.842-8.037C439.301,278.404,439.165,279.827,439.083,281.14z"/>
	<rect x="83.283" y="255.969" fill="#F8AC27" width="333.031" height="19.389"/>
	<rect x="83.283" y="275.357" fill="#CD9627" width="333.031" height="19.39"/>
	<rect x="83.283" y="294.747" fill="#A97D1F" width="333.031" height="19.39"/>
	<rect x="77.065" y="255.969" fill="#E6E6E6" width="6.219" height="58.168"/>
	<rect x="77.065" y="290.006" fill="#B3B3B3" width="6.219" height="16.321"/>
	<rect x="77.065" y="301.438" fill="#999999" width="6.219" height="2.213"/>
	<rect x="77.065" y="308.079" fill="#999999" width="6.219" height="3.042"/>
	
		<linearGradient id="SVGID_11_" gradientUnits="userSpaceOnUse" x1="-139.3311" y1="-1496.3867" x2="-131.0181" y2="-1496.3867" gradientTransform="matrix(1 0 0 1 547.4399 1781.4395)">
		<stop  offset="0.2416" style="stop-color:#F4B57E"/>
		<stop  offset="0.734" style="stop-color:#F4B57E"/>
	</linearGradient>
	<path fill="url(#SVGID_11_)" d="M416.422,255.969v58.168C416.422,314.137,397.718,283.532,416.422,255.969z"/>
	<path fill="#41AFC7" d="M262.796,213.221l49.859,26.39c0,0,29.654-66.619,25.412-81.309
		C327.828,122.864,297.053,139.93,262.796,213.221z"/>
	
		<linearGradient id="SVGID_12_" gradientUnits="userSpaceOnUse" x1="967.4902" y1="-2344.709" x2="1018.1758" y2="-2344.709" gradientTransform="matrix(0.6019 -0.7986 0.7986 0.6019 1654.0027 2369.7544)">
		<stop  offset="0.2416" style="stop-color:#F4B57E"/>
		<stop  offset="0.734" style="stop-color:#F4B57E"/>
	</linearGradient>
	<polygon fill="url(#SVGID_12_)" points="408.357,155.91 354.306,153.448 355.611,179.626 409.109,170.84 	"/>
	<path fill="#41AFC7" d="M317.624,151.778c-17.09-0.815-17.928,13.973-17.928,13.973c-1.244,7.303,2.716,21.001,15.448,20.522
		l40.468-6.646l-1.304-26.178L317.624,151.778z"/>
	
		<linearGradient id="SVGID_13_" gradientUnits="userSpaceOnUse" x1="-303.4297" y1="-1227.1533" x2="-281.9863" y2="-1227.1533" gradientTransform="matrix(0.9599 0.2804 -0.2804 0.9599 360.7275 1414.7615)">
		<stop  offset="0.2416" style="stop-color:#F4B57E"/>
		<stop  offset="0.734" style="stop-color:#F4B57E"/>
	</linearGradient>
	<path fill="url(#SVGID_13_)" d="M416.456,157.799c-1.593,0-1.783-0.066-1.975-0.13c-1.271-0.438-1.999-2.006-1.629-3.504
		c0.336-1.355,1.451-2.191,2.61-2.007c1.284,0.062,11.06-0.248,17.018-0.46c1.314-0.03,2.425,1.177,2.465,2.736
		c0.041,1.558-0.997,2.861-2.318,2.91C422.896,157.69,418.511,157.799,416.456,157.799z M415.817,152.242
		C415.818,152.242,415.818,152.244,415.817,152.242C415.818,152.244,415.818,152.242,415.817,152.242z M415.815,152.242
		L415.815,152.242L415.815,152.242z"/>
	
		<linearGradient id="SVGID_14_" gradientUnits="userSpaceOnUse" x1="-144.5479" y1="-1619.6523" x2="-119.9878" y2="-1619.6523" gradientTransform="matrix(1 0 0 1 547.4399 1781.4395)">
		<stop  offset="0.2416" style="stop-color:#F4B57E"/>
		<stop  offset="0.734" style="stop-color:#F4B57E"/>
	</linearGradient>
	<path fill="url(#SVGID_14_)" d="M405.51,157.573c0,0,4.537-5.463,9.641-5.463c4.42,0,12.685,5.536,12.288,9.583
		c-0.677,6.927-18.06,11.991-22.674,8.79C400.153,167.279,405.51,157.573,405.51,157.573z"/>
	<path fill="#3F99B0" d="M315.795,187.313c-0.233,0-0.438-0.205-0.471-0.487c-0.036-0.31,0.146-0.594,0.406-0.635l19.069-3.132
		c0.255-0.048,0.502,0.171,0.54,0.483c0.034,0.306-0.147,0.592-0.409,0.635l-19.068,3.132
		C315.84,187.312,315.82,187.313,315.795,187.313z"/>
	<g>
		<path fill="#4B916C" d="M358.501,268.436c-1.063-5.865-4.498-10.739-9.189-13.039l-86.271-42.338L256,229.166
			c-6.095,13.064-1.42,29.908,8.031,32.934l52.74,16.882l-32.679,41.012l22.918,24.548l47.632-59.769
			C358.119,280.401,359.566,274.298,358.501,268.436z"/>
		
			<linearGradient id="SVGID_15_" gradientUnits="userSpaceOnUse" x1="-278.0054" y1="-1439.7383" x2="-240.4292" y2="-1439.7383" gradientTransform="matrix(1 0 0 1 547.4399 1781.4395)">
			<stop  offset="0.2416" style="stop-color:#F4B57E"/>
			<stop  offset="0.734" style="stop-color:#F4B57E"/>
		</linearGradient>
		<polygon fill="url(#SVGID_15_)" points="269.435,338.383 291.973,363.409 307.011,344.541 284.093,319.993 		"/>
	</g>
	<g>
		<path fill="#283366" d="M295.589,390.256l-27.215-34.137c-4.083-5.122-3.875-13.182,0.464-18.001l7.325-8.138l22.104,27.729
			c6.904,8.661,6.556,22.29-0.784,30.44L295.589,390.256z"/>
		<g>
			<path fill="#F8AC27" d="M307.582,363.018c-1.232-0.373-2.98-1.156-4.732-2.815c-2.986-2.823-7.282-3.86-7.327-3.866l0.085-0.549
				c-0.078-0.038-0.147-0.104-0.19-0.199c-0.104-0.22-0.035-0.495,0.148-0.618c0.568-0.374,5.605-3.641,7.359-2.435
				c0.287,0.193,0.632,0.595,0.646,1.401c0.012,0.652-0.198,1.205-0.621,1.633c-0.824,0.843-2.406,1.082-3.899,1.09
				c1.367,0.638,2.936,1.558,4.284,2.832c2.96,2.801,5.95,2.945,5.979,2.943c0.214,0.01,0.382,0.216,0.376,0.47
				c-0.009,0.251-0.186,0.446-0.396,0.44C309.23,363.343,308.573,363.312,307.582,363.018z M302.318,353.221
				c-1.179-0.354-4.131,1.121-6.04,2.326c1.764,0.261,5.053,0.479,6.166-0.659c0.248-0.254,0.361-0.548,0.354-0.933
				c-0.007-0.408-0.143-0.553-0.259-0.631C302.475,353.281,302.401,353.244,302.318,353.221z"/>
			<path fill="#F8AC27" d="M284.521,353.521c-2.142-0.644-3.408-1.737-3.482-1.801c-0.17-0.151-0.206-0.435-0.079-0.636
				c0.126-0.2,0.369-0.249,0.538-0.096c0.023,0.024,2.457,2.113,6.235,2.086c1.727-0.01,3.439,0.426,4.847,0.926
				c-1.165-1.102-2.281-2.45-2.481-3.713c-0.105-0.651,0.023-1.235,0.375-1.737c0.438-0.625,0.918-0.684,1.246-0.625
				c2.034,0.358,4.232,6.599,4.479,7.309c0.08,0.231-0.013,0.498-0.209,0.593c-0.084,0.042-0.152,0.049-0.253,0.02l-0.225,0.489
				c-0.038-0.027-3.951-2.374-7.775-2.352C286.521,353.989,285.442,353.798,284.521,353.521z M291.676,348.836
				c-0.023-0.007-0.048-0.012-0.07-0.017c-0.134-0.021-0.315-0.009-0.538,0.307c-0.205,0.29-0.271,0.606-0.213,0.99
				c0.275,1.71,2.965,3.95,4.483,5.038C294.437,352.703,292.795,349.173,291.676,348.836z"/>
		</g>
	</g>
	<path fill="#2E2E2E" d="M357.14,124.012c0.439,0,0.797,0.421,0.797,0.939c0,0.518-0.357,0.939-0.797,0.939
		s-0.797-0.421-0.797-0.939C356.343,124.433,356.7,124.012,357.14,124.012z"/>
	<path fill="#FFFFFF" d="M359.731,134.701c0,0-3.33,0.27-6.432-3.932C353.3,130.769,352.269,139.717,359.731,134.701z"/>
	
		<linearGradient id="SVGID_16_" gradientUnits="userSpaceOnUse" x1="-425.3638" y1="-908.7324" x2="-424.3409" y2="-908.7324" gradientTransform="matrix(0.8685 0.4956 -0.4956 0.8685 258.3902 1121.5906)">
		<stop  offset="0.2416" style="stop-color:#DE8C5F"/>
		<stop  offset="0.734" style="stop-color:#DE8C5F"/>
	</linearGradient>
	<path fill="url(#SVGID_16_)" d="M338.91,124.012c-0.059,0-0.12-0.018-0.177-0.057c-0.173-0.115-0.232-0.374-0.136-0.579
		l1.728-3.573c0.099-0.203,0.317-0.273,0.491-0.158c0.171,0.118,0.232,0.376,0.131,0.579l-1.724,3.573
		C339.155,123.936,339.035,124.012,338.91,124.012z"/>
	
		<linearGradient id="SVGID_17_" gradientUnits="userSpaceOnUse" x1="1063.4141" y1="649.0693" x2="1064.501" y2="649.0693" gradientTransform="matrix(-0.4956 0.8685 -0.8685 -0.4956 1430.7883 -480.5659)">
		<stop  offset="0.2416" style="stop-color:#DE8C5F"/>
		<stop  offset="0.734" style="stop-color:#DE8C5F"/>
	</linearGradient>
	<path fill="url(#SVGID_17_)" d="M341.286,123.246c-0.061,0-0.12-0.019-0.177-0.056l-3.026-2.039
		c-0.175-0.115-0.234-0.374-0.136-0.579c0.1-0.203,0.319-0.274,0.491-0.155l3.026,2.037c0.174,0.115,0.233,0.376,0.136,0.579
		C341.532,123.17,341.41,123.246,341.286,123.246z"/>
	<path fill="#2D5C44" d="M322.392,281.914c-0.041,0-0.083-0.006-0.126-0.021l-5.645-1.803c-0.257-0.081-0.407-0.392-0.337-0.693
		c0.07-0.3,0.33-0.475,0.589-0.396l5.645,1.801c0.253,0.082,0.405,0.392,0.338,0.696
		C322.796,281.749,322.604,281.914,322.392,281.914z"/>
	
		<linearGradient id="SVGID_18_" gradientUnits="userSpaceOnUse" x1="-210.7593" y1="-1637.0581" x2="-207.1421" y2="-1637.0581" gradientTransform="matrix(1 0 0 1 547.4399 1781.4395)">
		<stop  offset="0.2416" style="stop-color:#DE8C5F"/>
		<stop  offset="0.734" style="stop-color:#DE8C5F"/>
	</linearGradient>
	<path fill="url(#SVGID_18_)" d="M339.938,146.206c-0.079,0-0.16-0.033-0.227-0.095l-2.898-2.803
		c-0.153-0.148-0.177-0.415-0.05-0.595c0.125-0.181,0.353-0.208,0.503-0.06l2.899,2.8c0.155,0.146,0.177,0.416,0.052,0.597
		C340.146,146.151,340.044,146.206,339.938,146.206z"/>
	<path fill="#4B916C" d="M138.863,219.763l50.319,8.244c0,0,0.191-1.081,0.416-3.213c0.592-5.648-2.867-9.278-2.077-22.551
		c0.304-5.095,5.145-18.971,5.272-24.106c0.474-18.871-0.604-36.009-6.03-36.572c-36.11-3.734-60.085-16.738-52.964,22.42
		c1.392,7.646,4.028,14.822,8.115,23.496C147.15,198.594,136.959,207.751,138.863,219.763z"/>
	<path fill="#1D2445" d="M137.932,216.741c0,0,36.167,10.188,51.465,3.927l7.689,7.339l-35.785,11.268L137.932,216.741z"/>
	<g>
		<path fill="#283366" d="M233.392,272.117c-1.063-5.865-4.497-10.738-9.189-13.039l-11.069-7.668
			c-17.135-11.868-35.462-21.157-54.553-27.649l-20.65-7.021l-7.039,16.109c-6.096,13.064-1.418,29.905,8.031,32.933l52.741,16.883
			l-32.682,41.008l22.921,24.547l47.629-59.766C233.012,284.086,234.455,277.979,233.392,272.117z"/>
		
			<linearGradient id="SVGID_19_" gradientUnits="userSpaceOnUse" x1="-403.1123" y1="-1436.0557" x2="-365.5376" y2="-1436.0557" gradientTransform="matrix(1 0 0 1 547.4399 1781.4395)">
			<stop  offset="0.2416" style="stop-color:#F4B57E"/>
			<stop  offset="0.734" style="stop-color:#F4B57E"/>
		</linearGradient>
		<polygon fill="url(#SVGID_19_)" points="144.328,342.066 166.864,367.093 181.902,348.222 158.983,323.675 		"/>
	</g>
	<g>
		<path fill="#41AFC7" d="M170.481,393.939l-27.215-34.139c-4.083-5.119-3.875-13.179,0.462-17.999l7.326-8.139l22.105,27.726
			c6.905,8.663,6.553,22.292-0.783,30.441L170.481,393.939z"/>
		<g>
			<path fill="#283366" d="M182.475,366.698c-1.234-0.368-2.98-1.153-4.732-2.812c-2.988-2.825-7.285-3.861-7.328-3.867l0.084-0.546
				c-0.079-0.037-0.147-0.104-0.191-0.199c-0.103-0.22-0.035-0.496,0.148-0.621c0.57-0.372,5.607-3.637,7.361-2.434
				c0.285,0.193,0.632,0.597,0.646,1.401c0.01,0.654-0.198,1.207-0.623,1.637c-0.822,0.842-2.406,1.081-3.898,1.089
				c1.367,0.636,2.935,1.556,4.282,2.833c2.958,2.796,5.951,2.94,5.979,2.94c0.216,0.01,0.382,0.219,0.375,0.47
				c-0.006,0.25-0.183,0.445-0.396,0.438C184.121,367.025,183.464,366.997,182.475,366.698z M177.209,356.903
				c-1.179-0.354-4.129,1.12-6.038,2.324c1.762,0.262,5.051,0.479,6.166-0.658c0.25-0.256,0.363-0.548,0.355-0.932
				c-0.005-0.409-0.142-0.553-0.259-0.629C177.367,356.963,177.292,356.928,177.209,356.903z"/>
			<path fill="#283366" d="M159.416,357.204c-2.143-0.643-3.41-1.735-3.484-1.8c-0.172-0.148-0.207-0.435-0.08-0.634
				c0.126-0.203,0.367-0.249,0.539-0.096c0.022,0.022,2.457,2.108,6.234,2.086c1.727-0.01,3.441,0.426,4.846,0.927
				c-1.164-1.103-2.278-2.453-2.479-3.716c-0.105-0.651,0.021-1.236,0.375-1.736c0.436-0.624,0.918-0.685,1.245-0.624
				c2.034,0.355,4.231,6.598,4.479,7.31c0.081,0.228-0.013,0.496-0.209,0.592c-0.084,0.041-0.153,0.047-0.254,0.016l-0.221,0.491
				c-0.04-0.027-3.955-2.374-7.779-2.349C161.414,357.675,160.336,357.48,159.416,357.204z M166.569,352.521
				c-0.025-0.008-0.048-0.012-0.073-0.017c-0.133-0.024-0.315-0.012-0.536,0.306c-0.205,0.293-0.271,0.607-0.211,0.987
				c0.272,1.715,2.965,3.955,4.482,5.043C169.329,356.387,167.686,352.858,166.569,352.521z"/>
		</g>
	</g>
	<path fill="#1D2445" d="M197.282,285.599c-0.038,0-0.083-0.008-0.124-0.021l-5.647-1.804c-0.253-0.082-0.405-0.393-0.335-0.692
		c0.069-0.302,0.328-0.477,0.587-0.397l5.646,1.802c0.256,0.082,0.406,0.391,0.337,0.694
		C197.687,285.434,197.493,285.599,197.282,285.599z"/>
	
		<linearGradient id="SVGID_20_" gradientUnits="userSpaceOnUse" x1="2524.6895" y1="198.2349" x2="2568.8242" y2="198.2349" gradientTransform="matrix(-0.9955 0.0948 -0.0948 -0.9955 2655.082 59.0337)">
		<stop  offset="0.2416" style="stop-color:#F4B57E"/>
		<stop  offset="0.734" style="stop-color:#F4B57E"/>
	</linearGradient>
	<polygon fill="url(#SVGID_20_)" points="77.169,85.736 109.731,131.163 124.16,113.641 85.392,75.735 	"/>
	<path fill="#4B916C" d="M131.828,161.993c10.274,14.386,19.416,5.765,19.416,5.765c5.035-3.583,9.617-20.062,1.331-30.094
		l-28.416-24.024l-14.429,17.524L131.828,161.993z"/>
	<path fill="#2D5C44" d="M133.892,165.389c-0.13-0.207-0.113-0.501,0.046-0.689c0.175-0.202,0.458-0.2,0.631,0.006l3.264,3.986
		c0.175,0.203,0.172,0.542-0.006,0.745c-0.175,0.205-0.458,0.201-0.629-0.006l-3.264-3.983
		C133.919,165.427,133.905,165.41,133.892,165.389z"/>
	<g>
		
			<linearGradient id="SVGID_21_" gradientUnits="userSpaceOnUse" x1="2718.3584" y1="-1594.3325" x2="2741.6592" y2="-1594.3325" gradientTransform="matrix(-0.5419 -0.8404 0.8404 -0.5419 2896.4749 1497.5649)">
			<stop  offset="0.2416" style="stop-color:#F4B57E"/>
			<stop  offset="0.734" style="stop-color:#F4B57E"/>
		</linearGradient>
		<path fill="url(#SVGID_21_)" d="M82.973,72.525c0.808,1.472,0.86,1.68,0.912,1.891c0.35,1.396-0.321,2.861-1.503,3.275
			c-1.07,0.374-2.186-0.237-2.651-1.398c-0.603-1.218-5.748-10.1-8.902-15.5c-0.682-1.201-0.442-2.834,0.572-3.66
			c1.016-0.825,2.402-0.524,3.101,0.674C79.651,66.628,81.936,70.627,82.973,72.525z M79.611,75.921
			C79.611,75.917,79.611,75.917,79.611,75.921C79.611,75.917,79.611,75.917,79.611,75.921z M79.611,75.923L79.611,75.923
			L79.611,75.923z"/>
		
			<linearGradient id="SVGID_22_" gradientUnits="userSpaceOnUse" x1="2821.7998" y1="-1335.3994" x2="2888.3857" y2="-1335.3994" gradientTransform="matrix(-0.6749 -0.7379 0.7379 -0.6749 2967.2808 1272.6359)">
			<stop  offset="0.2416" style="stop-color:#F4B57E"/>
			<stop  offset="0.734" style="stop-color:#F4B57E"/>
		</linearGradient>
		<path fill="url(#SVGID_22_)" d="M78.072,86.997c0,0-37.505-14.374-48.302-23.306c-4.782-3.955-2.332-16.648,0.276-18.873
			c4.462-3.807,56.835,28.911,57.871,34.669C88.95,85.247,78.072,86.997,78.072,86.997z"/>
		<g>
			
				<linearGradient id="SVGID_23_" gradientUnits="userSpaceOnUse" x1="-519.0625" y1="-1724.001" x2="-479.5293" y2="-1724.001" gradientTransform="matrix(1 0 0 1 547.4399 1781.4395)">
				<stop  offset="0.2416" style="stop-color:#DE8C5F"/>
				<stop  offset="0.734" style="stop-color:#DE8C5F"/>
			</linearGradient>
			
				<line fill="none" stroke="url(#SVGID_23_)" stroke-width="0.5" stroke-linecap="round" stroke-miterlimit="10" x1="28.627" y1="47.614" x2="67.661" y2="67.263"/>
			
				<linearGradient id="SVGID_24_" gradientUnits="userSpaceOnUse" x1="-520.3354" y1="-1719.1152" x2="-482.7358" y2="-1719.1152" gradientTransform="matrix(1 0 0 1 547.4399 1781.4395)">
				<stop  offset="0.2416" style="stop-color:#DE8C5F"/>
				<stop  offset="0.734" style="stop-color:#DE8C5F"/>
			</linearGradient>
			
				<line fill="none" stroke="url(#SVGID_24_)" stroke-width="0.5" stroke-linecap="round" stroke-miterlimit="10" x1="27.354" y1="52.891" x2="64.454" y2="71.757"/>
			
				<linearGradient id="SVGID_25_" gradientUnits="userSpaceOnUse" x1="-520.1558" y1="-1713.6514" x2="-485.1797" y2="-1713.6514" gradientTransform="matrix(1 0 0 1 547.4399 1781.4395)">
				<stop  offset="0.2416" style="stop-color:#DE8C5F"/>
				<stop  offset="0.734" style="stop-color:#DE8C5F"/>
			</linearGradient>
			
				<line fill="none" stroke="url(#SVGID_25_)" stroke-width="0.5" stroke-linecap="round" stroke-miterlimit="10" x1="27.534" y1="58.885" x2="62.01" y2="76.691"/>
		</g>
	</g>
	
		<linearGradient id="SVGID_26_" gradientUnits="userSpaceOnUse" x1="-208.6206" y1="-2173.1582" x2="-189.6514" y2="-2173.1582" gradientTransform="matrix(0.9833 -0.1818 0.1499 0.8108 683.695 1860.6089)">
		<stop  offset="0.2416" style="stop-color:#F4B57E"/>
		<stop  offset="0.734" style="stop-color:#F4B57E"/>
	</linearGradient>
	<path fill="url(#SVGID_26_)" d="M153.53,140.473l-3.134-17.211l18.21,3.837l3.583,10.406c1.833,5.325-2.921,11.051-8.667,10.439
		l-3.166-0.337C157.003,147.25,154.236,144.36,153.53,140.473z"/>
	
		<linearGradient id="SVGID_27_" gradientUnits="userSpaceOnUse" x1="851.499" y1="-2288.4795" x2="883.3838" y2="-2288.4795" gradientTransform="matrix(0.8734 -0.8699 0.8629 0.7381 1378.1921 2551.9258)">
		<stop  offset="0.2416" style="stop-color:#F4B57E"/>
		<stop  offset="0.734" style="stop-color:#F4B57E"/>
	</linearGradient>
	<path fill="url(#SVGID_27_)" d="M168.211,128.887l-7.133,0.057c-6.778,0.052-10.962-2.369-13.179-9.929l-7.577-23.662
		c-0.021-0.066,0.005-0.138,0.058-0.167l13.609-7.494c7.489-4.125,16.397-0.378,19.992,8.407l6.66,16.289
		c0.119,0.3,0.228,0.601,0.329,0.906C183.842,122.057,176.174,128.828,168.211,128.887z"/>
	<path fill="#F0524D" d="M150.678,124.805c0,0,8.074-8.767-1.928-28.893c0,0,9.729,4.734,19.877-6.986
		c3.803-4.393,2.461-11.596-5.282-11.975c-24.74-1.214-32.54,10.395-29.312,31.374C137.132,128.469,150.678,124.805,150.678,124.805
		z"/>
	
		<linearGradient id="SVGID_28_" gradientUnits="userSpaceOnUse" x1="1380.6855" y1="-2515.1582" x2="1391.2627" y2="-2515.1582" gradientTransform="matrix(0.3433 -0.9392 0.9392 0.3433 2036.8169 2277.9622)">
		<stop  offset="0.2416" style="stop-color:#F4B57E"/>
		<stop  offset="0.734" style="stop-color:#F4B57E"/>
	</linearGradient>
	<path fill="url(#SVGID_28_)" d="M151.948,107.757c3.271,1.411,5.223,4.814,4.357,7.601c-0.862,2.785-4.21,3.902-7.483,2.491
		c-3.271-1.411-5.223-4.814-4.359-7.601C145.327,107.462,148.677,106.346,151.948,107.757z"/>
	
		<linearGradient id="SVGID_29_" gradientUnits="userSpaceOnUse" x1="552.8398" y1="-4552.1729" x2="561.4136" y2="-4552.917" gradientTransform="matrix(0.7669 -0.6418 0.2601 0.3108 929.1416 1872.6852)">
		<stop  offset="0.2416" style="stop-color:#F4B57E"/>
		<stop  offset="0.734" style="stop-color:#F4B57E"/>
	</linearGradient>
	<path fill="url(#SVGID_29_)" d="M170.111,93.135c0,0,3.564,4.703,9.179,7.235c1.757,0.789-3.098,7.441-6.894,5.231
		S170.111,93.135,170.111,93.135z"/>
	<path fill="#FFFFFF" d="M176.115,105.572c0,0-1.532,3.198-5.891,3.888C170.222,109.458,175.588,114.998,176.115,105.572z"/>
	<g>
		
			<linearGradient id="SVGID_30_" gradientUnits="userSpaceOnUse" x1="-169.7759" y1="-1953.1104" x2="-169.0033" y2="-1953.1104" gradientTransform="matrix(0.9842 -0.1773 0.1773 0.9842 662.2506 2004.8048)">
			<stop  offset="0.2416" style="stop-color:#DE8C5F"/>
			<stop  offset="0.734" style="stop-color:#DE8C5F"/>
		</linearGradient>
		<path fill="url(#SVGID_30_)" d="M149.753,114.777c-0.043,0.041-0.096,0.074-0.155,0.084c-0.181,0.039-0.356-0.103-0.388-0.317
			l-0.576-3.772c-0.033-0.216,0.089-0.42,0.269-0.46c0.182-0.039,0.355,0.104,0.388,0.32l0.576,3.771
			C149.891,114.547,149.843,114.689,149.753,114.777z"/>
		
			<linearGradient id="SVGID_31_" gradientUnits="userSpaceOnUse" x1="19.7139" y1="392.1943" x2="20.6001" y2="392.1943" gradientTransform="matrix(0.1773 0.9842 -0.9842 0.1773 531.6747 23.2125)">
			<stop  offset="0.2416" style="stop-color:#DE8C5F"/>
			<stop  offset="0.734" style="stop-color:#DE8C5F"/>
		</linearGradient>
		<path fill="url(#SVGID_31_)" d="M151.063,112.549c-0.044,0.043-0.097,0.075-0.156,0.086l-3.198,0.679
			c-0.18,0.041-0.355-0.104-0.386-0.318c-0.035-0.214,0.089-0.421,0.269-0.458l3.196-0.679c0.182-0.041,0.357,0.104,0.39,0.318
			C151.2,112.321,151.152,112.462,151.063,112.549z"/>
	</g>
	
		<linearGradient id="SVGID_32_" gradientUnits="userSpaceOnUse" x1="532.9746" y1="-2414.9009" x2="536.3984" y2="-2414.9009" gradientTransform="matrix(0.7669 -0.6418 0.6418 0.7669 1307.1792 2324.3735)">
		<stop  offset="0.2416" style="stop-color:#DE8C5F"/>
		<stop  offset="0.734" style="stop-color:#DE8C5F"/>
	</linearGradient>
	<path fill="url(#SVGID_32_)" d="M169.306,129.504c-0.059,0.058-0.131,0.091-0.211,0.091l-3.491,0.045
		c-0.184,0.002-0.333-0.173-0.337-0.39c-0.001-0.22,0.149-0.398,0.329-0.399l3.492-0.045c0.182-0.002,0.335,0.173,0.337,0.39
		C169.428,129.321,169.38,129.43,169.306,129.504z"/>
	<path fill="#2E2E2E" d="M163.225,106.655c-0.133,0-0.264-0.074-0.345-0.21c-0.029-0.047-0.675-1.148-0.507-2.263
		c0.083-0.542,0.333-0.99,0.749-1.327c0.414-0.337,0.86-0.458,1.316-0.355c0.941,0.208,1.583,1.314,1.61,1.362
		c0.13,0.226,0.079,0.536-0.113,0.692c-0.193,0.154-0.456,0.096-0.587-0.133c-0.131-0.224-0.576-0.832-1.068-0.939
		c-0.239-0.054-0.458,0.014-0.679,0.195c-0.223,0.186-0.353,0.406-0.395,0.678c-0.09,0.583,0.235,1.292,0.367,1.517
		c0.131,0.224,0.086,0.535-0.107,0.693C163.392,106.626,163.306,106.655,163.225,106.655z"/>
	<path fill="#2E2E2E" d="M171.698,99.686c-0.134,0-0.264-0.074-0.345-0.211c-0.028-0.046-0.672-1.148-0.506-2.259
		c0.083-0.543,0.335-0.99,0.75-1.327c0.413-0.337,0.857-0.46,1.315-0.357c0.943,0.211,1.583,1.314,1.608,1.362
		c0.13,0.227,0.08,0.536-0.112,0.69c-0.19,0.154-0.454,0.095-0.587-0.132c-0.131-0.224-0.576-0.833-1.067-0.94
		c-0.234-0.05-0.458,0.014-0.679,0.195c-0.223,0.185-0.354,0.405-0.395,0.68c-0.091,0.583,0.233,1.29,0.365,1.515
		c0.132,0.226,0.086,0.536-0.107,0.693C171.867,99.658,171.781,99.686,171.698,99.686z"/>
	<g>
		<g>
			<path fill="none" stroke="#2E2E2E" stroke-miterlimit="10" d="M130.706,82.528c-8.506,0-14.412-2.578-15.606-11.279
				c-1.192-8.69,3.195-15.099,1.367-21.159c-1.458-4.833-6.407-10.466-22.305-13.158"/>
			<g>
				<polygon fill="#2E2E2E" points="120.481,96.924 136.477,67.522 150.006,77.78 134.01,107.182 				"/>
				<polygon fill="#2E2E2E" points="117.592,99.876 137.55,63.193 140.144,65.16 120.186,101.841 				"/>
				
					<line fill="none" stroke="#1A1A1A" stroke-width="0.5" stroke-linecap="round" stroke-miterlimit="10" x1="137.877" y1="69.354" x2="122.454" y2="97.696"/>
			</g>
		</g>
		<g>
			<path fill="#F8AC27" d="M93.194,31.909c1.959,0,3.55,1.877,3.55,4.193c0,2.313-1.591,4.19-3.55,4.19
				c-1.962,0-3.552-1.877-3.552-4.19C89.642,33.786,91.232,31.909,93.194,31.909z"/>
			<path fill="#F8AC27" d="M85.629,39.109l-8.949-2.53c-0.281-0.08-0.455-0.414-0.386-0.741l1.565-7.722
				c0.068-0.332,0.348-0.536,0.629-0.456l8.948,2.53c1.998,0.563,3.228,2.931,2.751,5.288l-0.08,0.384
				C89.632,38.22,87.627,39.674,85.629,39.109z"/>
		</g>
	</g>
	
		<linearGradient id="SVGID_33_" gradientUnits="userSpaceOnUse" x1="1965.7998" y1="778.3633" x2="1990.209" y2="778.3633" gradientTransform="matrix(0.0173 -0.9999 -0.9999 -0.0173 967.577 2044.9171)">
		<stop  offset="0.2416" style="stop-color:#F4B57E"/>
		<stop  offset="0.734" style="stop-color:#F4B57E"/>
	</linearGradient>
	<path fill="url(#SVGID_33_)" d="M221.604,43.948c0.06-1.452,1.104-2.573,2.336-2.502c1.23,0.069,2.161,1.312,2.12,2.753
		c-0.266,6.551-0.668,17.302-0.639,18.713c0.125,1.277-0.551,2.49-1.629,2.838c-1.186,0.384-2.415-0.442-2.736-1.846
		c-0.05-0.215-0.101-0.421-0.072-2.175C221.016,59.473,221.17,54.648,221.604,43.948z M225.357,62.517
		C225.357,62.517,225.357,62.519,225.357,62.517C225.357,62.519,225.357,62.517,225.357,62.517z M225.357,62.521L225.357,62.521
		L225.357,62.521z"/>
	
		<linearGradient id="SVGID_34_" gradientUnits="userSpaceOnUse" x1="1683.2676" y1="884.6133" x2="1721.6875" y2="884.6133" gradientTransform="matrix(0.1843 -0.9829 -0.9829 -0.1843 788.8021 1891.9539)">
		<stop  offset="0.2416" style="stop-color:#F4B57E"/>
		<stop  offset="0.734" style="stop-color:#F4B57E"/>
	</linearGradient>
	<path fill="url(#SVGID_34_)" d="M231.612,70.974c0,0,7.764-4.251,12.945-18.563c2.294-6.334-5.458-15.598-8.665-15.864
		c-5.492-0.454-17.691,28.638-15.998,34.177C221.586,76.26,231.612,70.974,231.612,70.974z"/>
	<g>
		
			<linearGradient id="SVGID_35_" gradientUnits="userSpaceOnUse" x1="1909.627" y1="-2372.0078" x2="1920.9258" y2="-2372.0078" gradientTransform="matrix(-0.8497 0.5273 0.5273 0.8497 3113.1633 1048.4537)">
			<stop  offset="0.2416" style="stop-color:#DE8C5F"/>
			<stop  offset="0.734" style="stop-color:#DE8C5F"/>
		</linearGradient>
		
			<line fill="none" stroke="url(#SVGID_35_)" stroke-width="0.5" stroke-linecap="round" stroke-miterlimit="10" x1="238.344" y1="38.041" x2="231.644" y2="47.725"/>
		
			<linearGradient id="SVGID_36_" gradientUnits="userSpaceOnUse" x1="1908.6494" y1="-2367.5107" x2="1917.8652" y2="-2367.5107" gradientTransform="matrix(-0.8497 0.5273 0.5273 0.8497 3113.1633 1048.4537)">
			<stop  offset="0.2416" style="stop-color:#DE8C5F"/>
			<stop  offset="0.734" style="stop-color:#DE8C5F"/>
		</linearGradient>
		
			<line fill="none" stroke="url(#SVGID_36_)" stroke-width="0.5" stroke-linecap="round" stroke-miterlimit="10" x1="241.784" y1="41.732" x2="236.377" y2="49.548"/>
		
			<linearGradient id="SVGID_37_" gradientUnits="userSpaceOnUse" x1="1909.2471" y1="-2362.3711" x2="1915.6406" y2="-2362.3711" gradientTransform="matrix(-0.8497 0.5273 0.5273 0.8497 3113.1633 1048.4537)">
			<stop  offset="0.2416" style="stop-color:#DE8C5F"/>
			<stop  offset="0.734" style="stop-color:#DE8C5F"/>
		</linearGradient>
		
			<line fill="none" stroke="url(#SVGID_37_)" stroke-width="0.5" stroke-linecap="round" stroke-miterlimit="10" x1="244.311" y1="46.936" x2="240.653" y2="52.22"/>
	</g>
	<path fill="#4B916C" d="M185.995,147.821c6.582,0,11.916,7.49,11.916,16.727c0,9.239-5.334,16.727-11.916,16.727
		s-11.916-7.488-11.916-16.727C174.079,155.312,179.414,147.821,185.995,147.821z"/>
	<path fill="#FFFFFF" d="M152.771,114.867c1.313,0,2.378,1.255,2.378,2.807c0,1.549-1.065,2.805-2.378,2.805
		c-1.312,0-2.376-1.255-2.376-2.805C150.396,116.122,151.459,114.867,152.771,114.867z"/>
	<path fill="none" stroke="#2E2E2E" stroke-width="0.5" stroke-linecap="round" stroke-linejoin="round" stroke-miterlimit="10" d="
		M294.173,57.297c0,0,6.732,1.123,7.794,7.065c0,0,1.65-7.291,7.394-7.291"/>
	<path fill="none" stroke="#2E2E2E" stroke-width="0.5" stroke-linecap="round" stroke-linejoin="round" stroke-miterlimit="10" d="
		M270.303,78.15c0,0,6.729,1.125,7.793,7.067c0,0,1.649-7.29,7.394-7.29"/>
	<path fill="none" stroke="#2E2E2E" stroke-width="0.5" stroke-linecap="round" stroke-linejoin="round" stroke-miterlimit="10" d="
		M330.734,44.512c0,0,6.733,1.123,7.794,7.067c0,0,1.651-7.292,7.395-7.292"/>
	<path fill="none" stroke="#2E2E2E" stroke-width="0.5" stroke-linecap="round" stroke-linejoin="round" stroke-miterlimit="10" d="
		M280.173,35.343c0,0,6.729,1.123,7.793,7.067c0,0,1.649-7.292,7.393-7.292"/>
	
		<linearGradient id="SVGID_38_" gradientUnits="userSpaceOnUse" x1="-318.8042" y1="-1723.6152" x2="-315.896" y2="-1723.6152" gradientTransform="matrix(1 0 0 1 547.4399 1781.4395)">
		<stop  offset="0.2416" style="stop-color:#DE8C5F"/>
		<stop  offset="0.734" style="stop-color:#DE8C5F"/>
	</linearGradient>
	<path fill="none" stroke="url(#SVGID_38_)" stroke-width="0.5" stroke-linecap="round" stroke-miterlimit="10" d="M228.886,53.646
		c0,0,3.215,0.813,2.216,8.357"/>
	
		<linearGradient id="SVGID_39_" gradientUnits="userSpaceOnUse" x1="1837.8477" y1="-2454.9766" x2="1841.3613" y2="-2454.9766" gradientTransform="matrix(-0.8105 0.5857 0.5857 0.8105 3003.6018 986.7922)">
		<stop  offset="0.2416" style="stop-color:#DE8C5F"/>
		<stop  offset="0.734" style="stop-color:#DE8C5F"/>
	</linearGradient>
	<path fill="none" stroke="url(#SVGID_39_)" stroke-width="0.5" stroke-linecap="round" stroke-miterlimit="10" d="M73.57,70.321
		c0,0-2.202,2.884,2.35,8.308"/>
</g>
</svg>
